/* XPM */
static char *result[] = {
/* columns rows colors chars-per-pixel */
"50 50 121 2 ",
"   c #9A6A23",
".  c #A57D41",
"X  c #A97C45",
"o  c #F4900C",
"O  c #F69412",
"+  c #F79817",
"@  c #F79918",
"#  c #F89B1B",
"$  c #C58C38",
"%  c #D99436",
"&  c #FA9F21",
"*  c #FBA225",
"=  c #FCA52A",
"-  c #FEA82E",
";  c #E5A03A",
":  c #FFAC33",
">  c #F2A63C",
",  c #F5AA3D",
"<  c #FCAE39",
"1  c #FFB13C",
"2  c #A98144",
"3  c #BB8E52",
"4  c #BD9355",
"5  c #C1844F",
"6  c #D1914B",
"7  c #C28651",
"8  c #C58B55",
"9  c #C98E56",
"0  c #C78E59",
"q  c #C88F5A",
"w  c #C69057",
"e  c #C99255",
"r  c #C79258",
"t  c #C9945C",
"y  c #C19959",
"u  c #CB9B5E",
"i  c #D39B55",
"p  c #DD9D51",
"a  c #D19B58",
"s  c #E59D41",
"d  c #CBA05D",
"f  c #D5A55E",
"g  c #D8A559",
"h  c #E7A142",
"j  c #E8A344",
"k  c #EDAA46",
"l  c #E4A54E",
"z  c #E9A348",
"x  c #ECAA4B",
"c  c #F0A641",
"v  c #F4AB42",
"b  c #F8AC41",
"n  c #F2AE49",
"m  c #FFB542",
"M  c #FFB847",
"N  c #F1B14B",
"B  c #FFBA4B",
"V  c #E6A550",
"C  c #E4A851",
"Z  c #EDAD55",
"A  c #E5AB5C",
"S  c #F0AE52",
"D  c #E3B15D",
"F  c #EEB65E",
"G  c #F3B553",
"H  c #FFBE53",
"J  c #F3BC5D",
"K  c #CC9661",
"L  c #CD9C63",
"P  c #D39C62",
"I  c #D19D6A",
"U  c #CEA364",
"Y  c #D1A565",
"T  c #D3AB67",
"R  c #D9AB65",
"E  c #D2A56B",
"W  c #DBA76C",
"Q  c #D4A96D",
"!  c #DAAB6C",
"~  c #D7B06A",
"^  c #DBB36D",
"/  c #DEBA6E",
"(  c #D5A471",
")  c #D6AA72",
"_  c #D9AB76",
"`  c #DBAE7C",
"'  c #DDB574",
"]  c #DEB973",
"[  c #DDB27C",
"{  c #E2AB63",
"}  c #EAAE61",
"|  c #E3AF6E",
" . c #E7B66C",
".. c #E1BC6E",
"X. c #E0AF75",
"o. c #E1B671",
"O. c #E3BC73",
"+. c #EABF74",
"@. c #E0B67A",
"#. c #E3BB7A",
"$. c #FFC056",
"%. c #FFC45C",
"&. c #FFC762",
"*. c #FFC965",
"=. c #F6C56B",
"-. c #FFCD6C",
";. c #E5C373",
":. c #EAC476",
">. c #EACB77",
",. c #E6C279",
"<. c #ECC67B",
"1. c #ECC979",
"2. c #FFCF70",
"3. c #F3CD7D",
"4. c #FFD174",
"5. c #F6D17E",
"6. c #FED57C",
"7. c #FFD87F",
"8. c #F4CC80",
"9. c #FBD581",
"0. c #FFDA83",
/* pixels */
">.;.O.,.>./ >.U >.;.>.Y >.Y ;.;.>.) ( [ <.5.5.7.1.5.3.>.1.>...#./ ~ T >.U U ` T T @.,.) >.>.>.;.>.>.",
"[ 9 3 Q r R #.t U U [ U [ >.E _ E I Q <.0.0.0.0.0.0.0.0.0.5.5.1.<.@.Q 0 8 _ Y O.t ` E t ) r 7 Y 8 >.",
":.U K ] [ Q #.w r 8 ;.` ` U U U E L O.0.0.0.4.&.&.-.0.0.0.0.0.0.0.0.5.1.#.q ` 0 _ ` E ( #.Q K O.` U ",
"[ ` ` K ` U u w ( u ,.[ _ ` K _ ) <.0.0.0.-.1 : : : $.0.0.0.0.0.0.0.0.0.0.8.<.@.` ` [ t ` [ [ 0 _ U ",
"( _ ` ) Q Q 8 u ) 4 ) [ E ( [ E ,.0.0.0.0.&.: : : : m 0.0.0.0.0.0.0.0.0.0.0.0.9.<.@.#.Q Y ` ) T U U ",
"8 ~ ) _ Q U K U Q . U ) [ 8 [ A 2.0.0.0.0.0.&.B M $.4.0.0.0.0.0.0.6.4.4.7.0.0.0.0.9.3._ u T _ ` E u ",
"U ] Q ) _ K L U ^ U u L ) U [ k 1 6.0.0.0.0.0.6.7.0.0.0.0.0.0.-.M 1 1 1 m H 4.0.0.0.0.3.' ~ Y ` ` K ",
"U Q Q Q _ L ) L T ) 2 y U U ) k 1 6.0.0.0.0.0.0.0.0.0.0.0.0.&.: : : : : : : 1 4.0.0.0.0.7.#.) Q ` ) ",
") _ U E U U ) K #.#.. t <.O.+.=.4.0.0.0.0.0.0.0.0.0.0.0.0.0.M : : : : : : : : %.0.0.0.0.0.0.:.Y ) U ",
"[ E U U U L _ U E ' y :.0.0.0.0.0.0.0.0.0.0.0.0.0.0.0.0.0.0.$.: : : : : : : : -.0.0.0.0.0.0.0.O.U U ",
"` ) U E ] K ) U 7 U ;.0.0.6.-.&.*.-.0.0.0.0.0.0.0.0.0.0.0.0.6.%.1 : : : : M *.0.0.0.0.0.4.-.&.J / w ",
"` ` U E #.t ) u E :.0.0.%.m : : : 1 M -.0.0.0.0.0.0.0.0.0.0.0.0.4.-.*.-.4.6.6.-.*.%.B M 1 < : b [ u ",
"E E 8 U [ ) ) E <.0.0.-.: : : : : : : 1 7.0.0.0.0.0.0.0.0.0.0.0.0.6.2.&.H M m < : : : : : : : , [ _ ",
"_ U 3 E ( ` ) 8.0.0.0.-.: : : : : : : < 0.0.0.0.0.0.0.0.6.4.&.$.M m < : : : : : : : : : : : : , E [ ",
"U U ) [ ) #.+.0.0.0.0.0.H < : : : : 1 *.0.0.0.0.4.-.%.M m 1 : : : : : : : : : : : : : : : : : b _ [ ",
"_ _ ] ~ r ,.0.0.0.0.0.0.0.2.&.%.%.*.4.7.4.&.$.M 1 : : : : : : : : : : : : : : : : - # # * : : , 8 8 ",
"U U [ E 5.0.0.0.0.0.0.0.0.0.0.6.-.%.B m 1 : : : : : : : : : : : : : : : : : : : * o o o O * : > >.,.",
"[ ` t 8.0.0.0.0.0.0.7.4.*.$.M 1 < : : : : : : - : : : : : : : : : : : : : : : : + o o o o O : b ,.U ",
"d E 3.0.0.0.7.2.%.$.m 1 : : : : : : : : : - # O + = : : : : : : : : : : : : : = o o o o o o - , [ 7 ",
"9 ;.4.*.%.B 1 1 : : : : : : : : : : : : : # o o o O : : : : : : : : : : : : : - O o o o o O - b [ 8 ",
"l m 1 : : : : : : : : : : : : : : : : : : o o o o o : : : : : : : : : : : : : : # o o o o # : b [ E ",
"x : : : : : : : : : : : : : : : : : : : : O o o o + : : : : : : : : : : : : : : : # O o # : : b [ ( ",
"h : : : : : : : : : = # # = : : : : : : : * O o + = : : : : : : : : : : : : : : : : - - : : : , E 8 ",
"j : : : : : : : : = o o o o = : : : : : : : - = : : : : : : : : : : : : : : : : : : : : : : : b L U ",
"% : : : : : : : : @ o o o o @ : : : : : : : : : : : : : : : : : : : : : : : : : : : : : : : : b ` U ",
"  x < : : : : : : O o o o o o : : : : : : : : : : : : : : : : : : : : : : : : : : : : : : : : , ` ) ",
"2 U A < : : : : : @ o o o o @ : : : : : : : : : : : : : : : : : : : : : : : : : : : : : : : : Z ` ) ",
"U r ` F : : : : : = o o o o = : : : : : : : : : : : : : : : : : : : : : : : : : : : : : : : F #.` _ ",
"8 ) E u > : : : : : = & # = : : : : : : : = # & * - : : : : : : : : : : : : : : : : : : : > Y L K ` ",
"7 q ) 8 , : : : : : : : : : : : : : : - # o o o o o = : : : : : : : : : * # & : : : : : : x ) r E E ",
"( ( L ) , : : : : : : : : : : : : : : # o o o o o o o : : : : : : : : - + o o * : : : : : v E ( _ ` ",
"` q 7 T : : : : : : : : : : : : : : = o o o o o o o o & : : : : : : : * o o o * : : : : : , 6 U q :.",
":.u 9 G : : : : : : : : : : : : : : # o o o o o o o o + : : : : : : : - + o # - : : : : : : , J _ U ",
"` @.S : : : : : : : : : : : : : : : O o o o o o o o o + : : : : : : : : - - - : : : : : : : : > [ U ",
"A b : : : : : : : : : : : : : : : : + o o o o o o o o * : : : : : : : : : : : : : : : : : : : , U U ",
"s : : : : : : : : : : : : : : : : : & o o o o o o o O - : : : : : : : : : : : : : : : : : : : b U L ",
"x : : : : : : : : : : : : : : : : : : O o o o o o o = : : : : : : : : : : : : : : : : < v N C { ` 0 ",
"k : : : : : : : : : : : : : : : : : : = # o o o # = : : : : : : : : : : : < , v G $ D f U Y ) ) ` _ ",
"x : : : : : : : : : : : : : : : : : : : : = = - : : : : : : : : < < k Z p | _ e ,.3 ' E E ) Q U ' U ",
"Z : : : : : : : : : : : : : : : : : : : : : : : : : : : v k l A R W U ) ) [ #.u ) 8 ' u [ Q Q U U U ",
"S : : : : : : : : : : : : : : : : : : : : : , > z F R i P Y d K [ I E U Q ` ,.8 E y ) u [ ) L E ~ t ",
"S : : : : : : : : : : : : : : : : b n Z } f a o.L #.U t ` [ U K T L ) U ` ` ` T ) Y ) L #._ U ) #.r ",
"x : : : : : : : : : : < , n l A i W Q ' I r U ' I ` U U E ` ' E U Y U U L ` Q ;.E L ` ) _ E y U ` ) ",
"x : : : : : < > x C {  .e ) Q U L ) Q ) u r ) ` ` Q 9 E U ` @.L Y E ( t ( ` U [ ) r ) ~ ) u 9 U ) ` ",
"x , ; s A  .g u ( U ` ` ^ Q ) ) _ ` I ( U Y ` Y ,.U u Y U ` ` T E _ Q ( ` ` _ ( E X E t U U E ( _ ` ",
"_ R d Y t E t U L E ` ` #.) u ` ` ( _ I K u #.U @.9 E t U ) E ) E ^ _ [ K ` t _ u 4 ' ( L ) ^ E K t ",
"Y Y 9 Q ] ] ) ( _ r ` E ` r L Y ) E [ ( U O.[ _ [ ( _ ) 0 [ ~ ` L ) E _ ( ` u ` _ 7 ) I E ( [ d O...",
"_ ) 3 7 9 U E L t _ _ _ ` 7 0 Y 7 u I ) Y d ` r E E q 8 _ #.) ) L L ) 8 8 [ _ E 8 ) ` ;.) E 8 _ :.T ",
"E Y ) 7 5 7 ` K L 1.` 9 U _ _ [ _ ;.] _ ) E 3 U 7 ` 7 U ' ` 7 ) ` E ,.` ,.U ,.;.3 7 ) / Q t ) t [ 7 ",
"7 L ` ) I 7 ) ` 7 ` ` U ` ` _ Q K ` ) t r E U :.7 U _ q [ ` t ` [ t _ _ ` >.[ [ 8 U ` #.r E ( ` ` 7 "
};
