/* XPM */
static char *result[] = {
/* columns rows colors chars-per-pixel */
"50 50 208 2 ",
"   c #0F0C09",
".  c #1D0909",
"X  c #130A08",
"o  c #16130E",
"O  c #1D150C",
"+  c #1A1510",
"@  c #14191C",
"#  c #1C1B18",
"$  c #0F161C",
"%  c #250C0C",
"&  c #2A0E0D",
"*  c #330F0F",
"=  c #2C120E",
"-  c #241A0E",
";  c #291C0E",
":  c #2E1110",
">  c #241E16",
",  c #2C1D12",
"<  c #251A16",
"1  c #341212",
"2  c #3C1313",
"3  c #321B12",
"4  c #3E1D19",
"5  c #30100E",
"6  c #2D2112",
"7  c #25201B",
"8  c #2B241B",
"9  c #342514",
"0  c #392614",
"q  c #3C2A16",
"w  c #342C1A",
"e  c #3C2C19",
"r  c #362519",
"t  c #3A361D",
"y  c #151C22",
"u  c #1C232A",
"i  c #18222A",
"p  c #192632",
"a  c #1B2936",
"s  c #1E2E3C",
"d  c #1F303E",
"f  c #2A2926",
"g  c #272825",
"h  c #332B20",
"j  c #362E25",
"k  c #2B332F",
"l  c #3E3327",
"z  c #3E3529",
"x  c #36362B",
"c  c #2C3639",
"v  c #363A36",
"b  c #3A3C3B",
"n  c #363936",
"m  c #212D37",
"M  c #421515",
"N  c #4A1616",
"B  c #461919",
"V  c #4C1C1B",
"C  c #531B1B",
"Z  c #5C1C1C",
"A  c #641E1E",
"S  c #412B16",
"D  c #442D1B",
"F  c #43311C",
"G  c #4A331B",
"H  c #4F381E",
"J  c #553A1E",
"K  c #5B3E1F",
"L  c #51361B",
"P  c #4A2A21",
"I  c #5D2221",
"U  c #522A22",
"Y  c #443B24",
"T  c #413629",
"R  c #42392D",
"E  c #4A3824",
"W  c #503E29",
"Q  c #583A24",
"!  c #403F3D",
"~  c #632222",
"^  c #6C2222",
"/  c #732525",
"(  c #7C2B2A",
")  c #7A2727",
"_  c #35403E",
"`  c #7F581F",
"'  c #4B4327",
"]  c #54432E",
"[  c #58492C",
"{  c #58522D",
"}  c #40463C",
"|  c #584932",
" . c #634422",
".. c #6B4925",
"X. c #69492C",
"o. c #724E27",
"O. c #795329",
"+. c #674C33",
"@. c #69553D",
"#. c #685436",
"$. c #785D3B",
"%. c #7E643F",
"&. c #213344",
"*. c #243749",
"=. c #26394C",
"-. c #283E52",
";. c #2A4156",
":. c #2D455C",
">. c #2F485F",
",. c #2F4962",
"<. c #324D66",
"1. c #334F69",
"2. c #35516C",
"3. c #365572",
"4. c #385773",
"5. c #395976",
"6. c #3C5D7B",
"7. c #375876",
"8. c #3F607F",
"9. c #504F4E",
"0. c #6C5A42",
"q. c #6C5843",
"w. c #7B5F42",
"e. c #7D6C40",
"r. c #606060",
"t. c #757575",
"y. c #812726",
"u. c #822827",
"i. c #832B2A",
"p. c #882F2E",
"a. c #815A2E",
"s. c #845E3A",
"d. c #896439",
"f. c #916734",
"g. c #A3753C",
"h. c #816645",
"j. c #866B42",
"k. c #8B6E4B",
"l. c #876847",
"z. c #8D7445",
"x. c #8F7251",
"c. c #957450",
"v. c #9A7348",
"b. c #A57D4A",
"n. c #AC824D",
"m. c #A98144",
"M. c #AD8A5B",
"N. c #A98655",
"B. c #B48A57",
"V. c #BB9459",
"C. c #B6854C",
"Z. c #B58F64",
"A. c #BA9666",
"S. c #BA9564",
"D. c #BFA165",
"F. c #C1844F",
"G. c #C28651",
"H. c #C48B55",
"J. c #C68D59",
"K. c #C88F5B",
"L. c #C69057",
"P. c #C69359",
"I. c #C9945C",
"U. c #CA9B5E",
"Y. c #C4985D",
"T. c #CC9661",
"R. c #C29A62",
"E. c #CD9C64",
"W. c #C99B68",
"Q. c #D19E6A",
"!. c #D19F66",
"~. c #CEA364",
"^. c #CEA569",
"/. c #D1A465",
"(. c #D3AA67",
"). c #D9AD66",
"_. c #D2A56B",
"`. c #D4A96D",
"'. c #D9AE6A",
"]. c #DAB26C",
"[. c #DEBA6E",
"{. c #D6B56B",
"}. c #CEA475",
"|. c #D5A572",
" X c #D6AA72",
".X c #D8AC76",
"XX c #DBAE7C",
"oX c #D6AA7A",
"OX c #DDB475",
"+X c #DEBA72",
"@X c #DEB37C",
"#X c #E2BC74",
"$X c #E3BC7A",
"%X c #E0B77B",
"&X c #E1BC6E",
"*X c #E5C374",
"=X c #EACB77",
"-X c #E6C378",
";X c #E8C778",
":X c #3B5F81",
">X c #3D6284",
",X c #3E6589",
"<X c #406282",
"1X c #42698D",
"2X c #41668A",
"3X c #8D8D8D",
"4X c gray62",
"5X c #A5A5A5",
/* pixels */
"=X*X*X-X=X[.=X~.=X*X=X(.=X/.*X*X=X|.|.$X'.`.%X{.P 4 Y {.-X=X[.$X[.{.).=X~.~.XX(.(.$X$X X=X=X=X*X=X=X",
"@XJ.G._.P.).$XI.U.~.%X~.@X;X_. X_.Q.`.`.'.G.oXd.Z ( V X.^.J.).|.@X X^.J.H.XX(.#XL.XX_.I.|.P.F.^.J.=X",
";X~.I.#XXX`.#XJ.P.J.*X@XXX~.~./.|.T.I.$XV.c.Q : ) y.( 1 Q h.R.XX~. X~..X.XJ.XXH.oX.X_._.$X`.T.#X.X~.",
"XX@XXXT.XX~.U.P.|.U.*XXXoXXXT.oX XOXT.k.Q I A 5 ( i.( 1 / ^ U l.Q.|.XX~.(. XoXoXXXXX%XT.XX@X@XJ..X~.",
"|..XXX`.`.`.H.U.`.V.|.@X^.|.XX^.^.-XB.4 y.y.C . V C V % ^ y.i.e Z.XX|.~.-XK.^.XX X.X$X|._..X|.(.~.~.",
"J.]. XXX'.^.T.~.(.b.~. XXXJ.@Xn.+.P 2 B i.y.B . I ^ V % Z y.p.% M U U +. XXX`.XX).|.+X|.U.(.OXXX(.U.",
"~.[.`.|. XT.E.E.].~.U.~. X~.@XW ( y.C M i.A 2 C ~ Z ^ V M C ( & C y.u.U A..XoX X[.U.^.T.(.{._.XXXXT.",
"~.`.|.`. XE.`.^.). Xm.I.V.z.E % p.y.C & N I / C = : 2 Z ^ A 2 & C u.u.C , X.M.R.E.~.`.P.~._.|.`.@X|.",
"|.XX~.~.!.~..XE.$X$Xf.P N / 2 1 i.y.Z % A Z = q o. . .3 2 Z A % C y.p.N * / ) 3 R.`.!.~.|. X(./. X~.",
"@X_.~.~.~.U..XE._.].#.^ y./ * & ^ C M V 2 0  .K 8 @ r K G 3 N A C C I * 5 ^ i.2 4 +.l.l..X`.(.~.~.~.",
"@X|.~.`.OXT.|.V.s.D ; ( y./ 2 % I Z 2 3 .. .> y a &.p @ q  .G & C A ^ ~ & ^ y.B & C ( C M. XE.|.[.L.",
"XXXX~.^.$XB.P ~ / M 1 ( / N 5 V 2 3  . .< @ s =.=.=.=.=.a @ 9 ..G & C ^ I C B 1 % C i.I |  XE.|.@XU.",
"_.^.H.E.|.] ^ ( ) M & C M ~ 2 3 K  .9 @ s *.s i 0 [ 6 i m =.p # D [ S * C A ^ C X C y.~ X D X.V.@X.X",
"XXY.v.+.3 % ~ ( y.M % I M = K o.9 $ a =.:.-.# S G o.0 S i ;.:.*.i # L  .3 * Z ^ Z B B 2 . 2 ~ B l.@X",
"~.E A y.Z % C A C * & = J ..9 $ s =.:.<.<.;.8 O.J a.S a.u ;.<.<.;.=.i + K  .3 2 A A A / X 2 ~ i.r }.",
"A.S y.) C . C C 2 3 J  .q y a =.:.<.<.<.<.;.g L K f.S  .u :.<.<.<.<.;.&.u , L K 3 2 Z ^ V & A i.I d.",
"z.~ y.) 2 : Z & S O.D @ p *.:.<.<.<.<.<.<.:.y 0 K f.q G u :.<.<.<.<.<.<.-.s @ r ..G & M ^ ~ M ^ ( $.",
"+.) N V C & G o.S @ p =.;.<.<.<.<.<.1.<.<.,.# - K f.q - c <.<.<.<.<.<.<.<.<.-.s @ q ..L & N ^ A B 3 ",
": B C = S  .G > u =.;.<.1.1.1.<.<.<.<.<.1.1.*.y J f.0 i -.<.<.<.<.<.<.<.<.<.<.>.-.a # q  .S 5 C ( , ",
"Q D : ..J e N.0.:.<.1.1.<.<.m f f f f f g g g > L a.r 7 f f f f f f f f g s <.<.<.:.-.7 e J  ., U U ",
"K.J.R.| c._.XX0.2.2.5.6.1.-.g E R R T T R R T l q K ; l T T T T T z T T z # :.2.4.1.4.z XXc.E }.}.R.",
"|.%XI.T..X!..X0.6.6.6.6.5.-.h T T l l l l l l j 0 K 6 l T l l l z z l T R j ;.7.>X:X8.! XX%XI.XXXX|.",
"L.'.T.XX_.J.@Xq.6.6.6.8.8.-.w T 8 e W W ] W E E 0 J ; F ] ] W ] ' W j 6 T l ;.>X,X>X1X-.oX].T.XX_.J.",
"I.H..XXXQ.U..X0.6.6.8.8.:X,.h z 8 $.`._.U.`.!.C.9 q 9 A. X|._..X.X~.d.> l l ,.,X>X>X1Xn !.L.|.XXQ.~.",
"g.!._.%X%XI.`.0.6.6.8.8.<X2.w z g h._.!.oX!.(.n.6 ; , R.oX@X XoX_._.d.7 l l 3.,X2X>X1X! .XQ.|.XXXX/.",
"a.|.`.|..XT.|.@.6.8.8.8.8.2.w T 8 l.`.E._.!.Q.P.E.`. XI.|.@X.X.X~.XXj.7 l l 7.,X,X<X1X_ ^.`._.`.XX|.",
"g./.'.OX_.E.~.@.6.6.8.8.8.<.e l 8 h.E./.I.XX#XH.I.L.T.|..XXXOX`._.XXx.> l l 2.,X,X>X2X_ P.E.|..XXX`.",
"U.L.XX#XQ. X~.@.6.8.8.8.8.<.j T > h._.`.I.|.].H. XU.!.XX@X@X@X_._.|.k.> l l 2.,X>X>X2Xb E.I.XX-XXX.X",
"J.|.`.U.T.XXQ.@.5.6.8.8.>X:.h l 8 j.E.`. X|.~.G.@X|.T.(.^.|.Q.Q. X_.k.> z z 2.,X>X>X1Xn .X!._.U.I.XX",
"F.I._.J.oX.X_.q.5.6.6.8.6.:.h l 8 h._._./.T.U.H.XX_.|.^.].T.|.E.T._.x.> l j 1.>X:X:X,Xb .X`.|.L.|._.",
"|.|.E.|. XQ./.@.5.6.6.6.6.;.h l 8 $.U.|.T.J.~.F.J.~._.|.I._.XX~.U.P.s.> l l ,.>X:X:X,Xb |. X_._.oXXX",
"XXJ.G._.L.).~.q.5.5.5.6.6.;.r T 8 h._.`.'.G..X|.F.~.E.H.~.Q.%X`.OX Xl.< l l ,.:X6.6.:Xb .XL.G./.J.;X",
"=XE.J.-XXX X.X0.3.5.5.6.5.-.h T 8 $.I.$XJ._.%XH..X%XoX|.@X(.|.@X~. Xj.> l l :.6.6.7.>Xn $X XK.-X.X~.",
"XXXX@XI.XX~.W.q.3.4.5.4.4.-.w T f e.Q.XXXXXXoXH.E.XXXX;XU.@X[.E.T.|.x.> l l :.6.6.7.:Xn XXXX@XH.@X~.",
".XXXXX_.`.`.U.0.2.4.4.4.3.-.h T 8 z.I._.XXXX.XU.XX~.XXK..X~.~.I.XX@Xk.> l l :.7.7.7.:Xn `.@X|.(.~.~.",
"G.(..XXX'.(.~.@.1.4.3.4.1.-.h l 8 l.|.U.XX`.oXF.*X/./.-XXX~.~.|.P.@Xl.> z l ;.7.7.7.7.b P.~.@XXX/.E.",
"!.#X(.|..XP.`.@.1.2.2.4.2.=.h T 8 e.oX XOX#XI.G.~. X~.~._..X_._.U.$Xz.7 l l ;.3.3.3.5.n `.[.^.XXXXJ.",
"/.H.|. X X^.^.@.<.2.2.2.1.=.r T 8 l.L. X~./._.L.H./.~.`._.!.$X^.].`.d.> l l ;.2.2.2.4.n ~.~. X|.oX.X",
"_.U.~.~.`.~. X#.<.1.1.2.<.*.h z 8 w.E. X(.~._.U.~._./.OX^.$X(. XI.+Xj.7 l l ;.2.1.1.3.n (..X(.~.OX~.",
"@XC.~.~.E.E.|.0.<.1.1.<.<.&.h z 8 h. XXXE.`.`.G.U.XX(.[.!.).~. X`. Xj.7 l l -.<.1.1.2.n XX|.(.~././.",
"XXb.~.^.OXU.(.@.;.<.<.<.<.&.w z 8 w.XXXX!._.U.T.T.$X`.U.!./.U.E.@X_.j.7 l l ;.<.<.<.1.x @X`.E.^.].I.",
"XXL.~._.$XU.A.t :.<.<.1.1.m h l 8 h..XXXXX~.U.OXE.$X~.P.XX@XE.U.).W.z.7 l l &.1.1.<.<.u A..X~. X$XL.",
"`.I.P.~.@X_.#.x :.>.<.1.>.m 7 7 # h.|.OX!.P.~.@XQ.XX~.E._.XX@X_.~._.d.+ 8 w d <.<.1.1.v ' R.P.~.XX.X",
" XL.g.U.|.@X#.' b ;.v k k u < > + e.^..XE.P.`.XX@X|.L._.~.XX%X~._.~.z.o + 7 f k v _ } { ' Y.P.~. XXX",
"`.U.n.H.`.OXW l ' t w w w 6 o +   q.b.M.n.N.S.M.D.N.n.M.M.A.A.M.B.M.%.  o O w t t [ { { Y Y.`.|..XXX",
".X_.U./.U.R.e e G 6 6 6 ; O o o   n r.r.r.r.r.r.r.r.r.r.r.r.r.r.r.r.b   o O - 6 6 r F G 6 M.[.^.I.K.",
"(.~.L.(.[.`.F e G 9 6 6 6 + g k g r.3X3X3X3X3X3X3X3X3X3X3X3X3X3X3X3Xt.9.9._ O 6 6 9 G E 6 B.XXU.&X&X",
"XX|.F.H.V.~.F 9 w - - - - w 4X5X5X5X5X5X5X5X5X5X5X5X5X5X5X5X5X5X5X5X5X5X5X4XO 6 ; 9 G F 6 M.H.XX=X`.",
"~.^. XG.F.b.x.+.o.h.w.+.+.j t.t.t.t.t.t.t.t.t.t.t.t.t.t.t.t.t.t.t.t.t.t.t.t.> w 6 9 w e l n.|.I.@XH.",
"H.E..X|._.F.|.@XH.XX@X^.S.z z z T b R l z z z R z z z z R R z z z l z z ! R | }.H.~.XX$XH._.|.XXXXC."
};
