/* XPM */
static char *result[] = {
/* columns rows colors chars-per-pixel */
"50 50 223 2 ",
"   c #1D0A0A",
".  c #120C0A",
"X  c #15120D",
"o  c #18140F",
"O  c #1B190D",
"+  c #1E1914",
"@  c #181818",
"#  c #0D141A",
"$  c #250C0C",
"%  c #2B0E0E",
"&  c #300F0F",
"*  c #2D140E",
"=  c #241B0E",
"-  c #2D1C0F",
";  c #32100F",
":  c #241C13",
">  c #291914",
",  c #351212",
"<  c #3B1313",
"1  c #341C11",
"2  c #242111",
"3  c #2A2313",
"4  c #2D251C",
"5  c #27241C",
"6  c #332514",
"7  c #392314",
"8  c #3C2915",
"9  c #3B2C1B",
"0  c #362819",
"q  c #39331D",
"w  c #161D24",
"e  c #19232C",
"r  c #1D2C3B",
"t  c #1A2734",
"y  c #1F303F",
"u  c #2A2925",
"i  c #322B23",
"p  c #353420",
"a  c #3F3427",
"s  c #3C3923",
"d  c #202B34",
"f  c #373838",
"g  c #431515",
"h  c #451A19",
"j  c #4C1A1A",
"k  c #481616",
"l  c #541C1B",
"z  c #5B1D1D",
"x  c #631E1E",
"c  c #681F1F",
"v  c #452A1A",
"b  c #58201F",
"n  c #4A341B",
"m  c #45311A",
"M  c #5A3D1F",
"N  c #54391D",
"B  c #66201F",
"V  c #4D2921",
"C  c #5B2221",
"Z  c #453523",
"A  c #423629",
"S  c #473A27",
"D  c #563A25",
"F  c #632322",
"G  c #6C2423",
"H  c #6F2929",
"J  c #722424",
"K  c #792727",
"L  c #3D4030",
"P  c #4A4526",
"I  c #4D492A",
"U  c #46442A",
"Y  c #5E4523",
"T  c #55442C",
"R  c #534E2A",
"E  c #5D472A",
"W  c #57522E",
"Q  c #5B562F",
"!  c #4B4A31",
"~  c #554A35",
"^  c #5A4935",
"/  c #554B3B",
"(  c #5A4C39",
")  c #554634",
"_  c #55553C",
"`  c #585436",
"'  c #4F523E",
"]  c #644422",
"[  c #6B4925",
"{  c #654D2F",
"}  c #644B33",
"|  c #645E33",
" . c #685336",
".. c #755938",
"X. c #7D562C",
"o. c #6E6338",
"O. c #7F581F",
"+. c #223344",
"@. c #263A4D",
"#. c #243749",
"$. c #293F53",
"%. c #273C50",
"&. c #2A4156",
"*. c #2C445B",
"=. c #2F485F",
"-. c #2F4961",
";. c #324D66",
":. c #334F69",
">. c #35526D",
",. c #375672",
"<. c #385673",
"1. c #395976",
"2. c #3C5D7B",
"3. c #375978",
"4. c #3F607F",
"5. c #4C4A49",
"6. c #565944",
"7. c #57544F",
"8. c #765E42",
"9. c #67684C",
"0. c #686C54",
"q. c #6E735C",
"w. c #67715F",
"e. c #75745C",
"r. c #796045",
"t. c #6C7663",
"y. c #757A66",
"u. c #737373",
"i. c #7F7F7F",
"p. c #686868",
"a. c #5C6556",
"s. c #812726",
"d. c #842A29",
"f. c #872C2B",
"g. c #855B2E",
"h. c #825A36",
"j. c #906231",
"k. c #926F39",
"l. c #8C6337",
"z. c #A3753C",
"x. c #8D7348",
"c. c #94714A",
"v. c #A27A48",
"b. c #B27B4A",
"n. c #807D66",
"m. c #7D876F",
"M. c #A6855A",
"N. c #B68A51",
"B. c #86846D",
"V. c #858C75",
"C. c #8B957A",
"Z. c #B79265",
"A. c #C1844F",
"S. c #C28651",
"D. c #C48C55",
"F. c #C78D59",
"G. c #C88F5B",
"H. c #C69057",
"J. c #C7925A",
"K. c #C9945C",
"L. c #CA9B5E",
"P. c #C5965A",
"I. c #CC9661",
"U. c #CD9D63",
"Y. c #CB9D65",
"T. c #D19E6A",
"R. c #CEA364",
"E. c #CBA569",
"W. c #D0A565",
"Q. c #D2A56B",
"!. c #D4A96D",
"~. c #D5AB67",
"^. c #DAB26C",
"/. c #DCB76E",
"(. c #CCA373",
"). c #D5A571",
"_. c #D6AA72",
"`. c #D8AC76",
"'. c #DBAE7B",
"]. c #DCB473",
"[. c #DEB27C",
"{. c #DEB972",
"}. c #E3BC7A",
"|. c #E1BA76",
" X c #E1BC6E",
".X c #E5C373",
"XX c #EACB77",
"oX c #E6C378",
"OX c #E8C877",
"+X c #3B5F81",
"@X c #3D6284",
"#X c #3E6589",
"$X c #416383",
"%X c #43698C",
"&X c #41678A",
"*X c #838383",
"=X c #8E9B82",
"-X c #94998F",
";X c #98A68C",
":X c #9DAC93",
">X c #97A791",
",X c #A0A58E",
"<X c #A3AB93",
"1X c #A1A790",
"2X c #A6B399",
"3X c #AAB49B",
"4X c #A8B797",
"5X c #B8B79C",
"6X c #B3AF98",
"7X c #A9A9A9",
"8X c #A2A2A2",
"9X c #ADBAA2",
"0X c #B3BBA4",
"qX c #A19E87",
"wX c #C9BAA0",
"eX c #B6C2A2",
"rX c #C8C6A9",
"tX c #D7C7AA",
"yX c #DBCEB3",
"uX c #E4CDB2",
"iX c #E8D7B6",
"pX c #E2C7AB",
"aX c #F3E2BB",
/* pixels */
"XX.X XOXXX XXXW.XXoXXXR.XXW.oX.XXX)._.}.^.~.}.E.7 h T .X.XXX/.}.{.^.~.XXR.R.'.W.~.[.oX!.XXXXXX.XXXXX",
"[.H.A.~.G.~.}.K.R.R.[.R.[.XXR.`.Q.T.!._.!.D.'...G K b h.Q.P.~.!.].`.Q.F.D.'.Q. XK.[.!.K._.J.A.W.D.XX",
"OXW.K. X[.Q. XF.J.D..X[.'.R.R.R.).I.J.}.I.c.D % f.K F % Z M.R.'.R._.R.`.`.D.'.F.'.`.Q.!.}._.I. X'.R.",
"'.'.wXF.'.W.L.K.).L.oX'.`.'.K.'._.'.G.x.D F l < f.d.H ; G F V c.T.).[.Q.W._.'.`.'.'.'.I.'.'.[.J.'.R.",
"Q.`.'.).Q.Q.D.L.!.N.`.[.Q.).'.R.E.oXx.h s.K j % C b h $ x s.J V Z.'.).W.oXG.U.[._.`.}._.Q.`.).!.R.R.",
"H.^._.'.^.T.I.W.^.z.R.`.'.D.[.M...V & j s.K g $ C x j $ z s.H , < V V ..`.'.~.[.~.(.{._.L.W.].'.!.P.",
"W. X!.).`.K.L.T.^.W.L.R._.R.[.Z K d.h k s.x , l c x x k < G H ; x d.f.C T._.wX~./.L.R.I.Q.^.R.`.'.K.",
"R.Q.!.!.`.W.!.U.^./.z.H.Z.x.E * f.d.j % l C J l * * g x G l , % F K d.h 9 X.M.Y.R.R.!.J.R.!._.!.'._.",
").'.R.R.Q.R.`.U.}.}.k.D b b g < d.s.j % G z , 7 [ [ n * k x j $ c d.f.h < x C D R.Q.T.Q._.`.~.W.`.R.",
"'.!.R.W.R.I.`.U.T./...F s.J < , c l < j < 1 ] ] 1 # 9 ] n ; z F h j b % < G f.< Z ..x.v.'.!.W.W.R.R.",
"'._.R.Q.|.I.).E.v.^ * K s.c < % z z g * Y ] 6 @ t r e @ m ] 7 ; x J G l ; J d.< & l H v Z._.L.!./.H.",
"'.'.U.Q.}.N. .h z < , f.K l % h k * N [ 0 @ t +.@.@.@.y e : N M 1 < z G k k x < $ z s.h 8._.R.!.|.L.",
"!.Q.D.W.).^ C s.s.g % l z j < 1 M M 0 @ t +.y t D { i d +.+.e 5 D N 7 < z c z k   l s.l $ D l.Z.'.`.",
"`.U.v...v   z s.s.g % x k * N [ 8 @ r @.*.%.+ 6 n { 7 8 w &.$.+.w : D M 1 g x G l k j & $ < z V c.[.",
"R.E l J z $ j c z , % * n [ v # e #.*.;.;.&.i ] D X.n X.u *.;.;.$.y w 6 D N * g x c c C . < J d.} wX",
"'.V s.K j   g z k * v [ n @ e +.*.;.;.;.;.&.i n ] j.n ] u =.;.;.;.-.#.r @ 8 ] v % j c G < ; G d.j N.",
"v.l s.K < % z ; 8 [ n : e #.&.;.;.;.;.;.;.*.5 6 ] j.m m u -.;.;.:.;.;.=.@.t + n [ 7 % z G j j K G x.",
"^ J x h j < 1 ] D : w y $.;.;.;.;.;.;.;.;.*.@ - ] j.v 0 f -.;.;.;.;.;.;.;.*.+.e : D ] * < x G j C 9 ",
"> j l h * Y Y = w +.$.;.;.;.;.;.;.:.;.;.;.;.y # ] j.8 w +.:.;.;.;.;.;.:.;.;.;.&.+.w : ] N * k x G o ",
"0 C , n [ 8  .D =.=.;.;.;.;.@.d d d d d d t t @ D g.0 @ t t t r d d d d r &.;.;.-.$.+.o 8 ] v < H 8 ",
"N...h.Z E Z.'.^ 1.>.<.1.:.*.u ( ( ( ( ( ( ( ( A n [ 0 ^ ^ ~ ^ ~ ( ~ ) ( ) w -.:.>.;.:.^ Z.D v c.r.M.",
").}.I.I._.T._.^ &X1.2.2.<.+.i A A A A A A A A 0 v D 6 A S S A A A A A A A i &.3.@X2.2.6.].wXK.[.[.).",
"F.^.I.'.Q.H.'.E %X2.2.4.2.#.i a i X o o o o o X 8 M = o o o o o X o o 4 A i -.+X@X@X#X( ).^.G.[.Q.H.",
"P.S._.[.T.L.'.^ %X2.2.4.2.@.i a 0 3 R R W R R s - v = P R R W R I P 2 4 A i ;.#X#X@X%X5.T.G.).[.I.R.",
"z.T.Q.[.[.P.!.T %X4.4.4.4.&.i Z p 3 | o.| I P L = 6 4 m.' I W o.| R = 3 A i 3.#X#X#X%XD `.T.).'.[.W.",
"O.!.!._.`.Y.!.) %X4.4.4.4.*.i a 4 5 | Q 6.m.6.! e.q a.m.! w.y.R | R 2 5 A i +X#X#X#X%X6.T.!.Q.!.'.).",
"b.R._.].T.U.U.T %X4.4.4.$X&.9 A 4 3 ` _ C.:X1X~ 0.R w.' 6.rXeXq.| P 2 5 A i 3.#X#X+X%X6.J.U.!.`.'.).",
"L.H.`.|.T.`.W.T %X2.4.4.$X&.i A 4 3 W 6.y.=XC.0.U I s ! C.,XC.B.P R 2 4 A i 3.#X#X#X%X/ U.K.[.}.[.`.",
"D.).!.L.I.'.T.T %X4.2.4.$X%.i A 4 3 Q U I ! ! ! ! R I ~ ! U ! U ! I 2 5 A i 3.#X+X#X#X5.`.T.Q.L.K.'.",
"S.H.).D.'._.).D $X4.4.4.4.#.i s i 3 W w.;X<X2X;X9X_ y.rXrXtXuX6Xp 7.+ 5 A u ,.+X+X+X&X) _.Q._.H.).Q.",
").).U.).`.Q.Q.T $X2.2.2.2.#.i s u 3 W w.;X,X3X,X1X_ n.tXwXiXyX;Xp 7.o 4 A i ,.+X+X+X@X/ _._.!.Q.'.'.",
"'.H.S.!.H.~.R.T $X1.2.2.2.+.i s 4 3 W w.:X,X3X3X,X_ e.5XuXuXeX-Xp 7.O 4 a i :.+X+X+X$X/ _.G.S.W.H.oX",
"XXK.D.}.'.!.'.^ @X1.1.2.1.+.i A i 3 W m.C.2X9X1X9X_ y.uXiXyX2X>Xp 7.@ 5 A i >.+X+X3.@X/ }.Q.G.oX`.R.",
"wX].|.G.'.R.T.D 2.1.1.1.1.#.i Z 4 3 W t.>X9X3X:X5X6.B.aXyXeX4X=Xp 5.O 5 a i ;.3.3.3.2./ [.'.|.D.[.R.",
").'.[.).Q.!.H.^ 2.1.1.<.,.+.i a i 3 W w.:XeX9X2XiX_ n.pXrX4X:X=Xp f O 4 a i -.3.3.3.2./ !.[.).Q.R.R.",
"S.~.`.'.^.Q.W.T 2.<.<.<.>.+.i a 5 3 W w.:X4X9X0XrX_ n.iX9X4X:X=Xp 4 O 5 a i -.3.3.3.3.6.K.R.[.'.W.U.",
"T. X~.)._.K.!.T 1.<.<.<.>.+.0 a 3 3 W 6.B.V.B.B.V.' 9.V.m.V.m.m.U I = 4 A i -.,.,.,.3./ !./.R.'.'.H.",
"W.F.`.!._.T.W.T 1.>.>.>.;.y i a p 3 W _ 9.m.e.e.e.I _ q.q.q.q.9.P Q 2 4 a i *.>.>.>.,./ R.R._._.'.`.",
"~.L.U.W.Q.W._.T <.>.>.>.;.r i a 4 3 W w.:XrXrXtXtX_ e.9X4XeX:X;Xs Q 2 5 A i *.>.>.>.>./ !.`.!.R.`.R.",
"'.N.U.W.U.L.`.T <.;.;.>.;.r i a 4 3 W q.5XrXtXpXtX_ q.eX2X4X:X;XU Q 2 3 A i *.:.>.;.:.~ '._.W.R.R.R.",
"[.z.W.W.].L.~.~ >.;.:.;.;.r 0 a 0 5 W y.rXrXpXpXtX_ e.<X3X4X:X=XU Q = 5 A i &.;.;.;.:.~ [.!.R.!.^.P.",
"'.K.W.T.}.K.!.A ;.;.;.;.;.r i a 4 3 W y.0XtXtXiX4X_ q.4X9X3X:X=XS Q 2 5 A 4 &.;.;.;.:.S [._.U.).}.P.",
"!.K.F.W.}.Q.x.5 ;.;.;.;.-.t 4 i 5 3 W 6.9.0.0.q.0.W _ 0.0.0.0.9.I Q 2 5 a 4 @.;.;.;.;.u  .Q.P.R.'.`.",
"_.G.z.G.~.wX} I *.=.*.&.#.e : : + = Y ] Y Y ] Y E ] Y Y ] ] Y Y Y N : o : 5 r @.$.$.&.L I L.J.R.).'.",
"Q.I.N.A._.}.{ | I I s q p 3 + + X 7 g.j.j.j.j.j.j.j.j.j.j.j.j.j.j.X.0 X + + q s U W W o.T L.Q.).`.'.",
"`.!.L.R.K.T.E 0 0 2 O = + X X X . : Z Z Z Z A V Z Z Z Z Z Z Z Z S m 2 . o o = 2 2 4 q q q !./.Q.I.K.",
"W.W.D.~.{.|. .n m 6 - 3 - O X X . 5.i.i.i.i.i.i.C.%Xm.*Xi.i.i.*Xi.i.5.X o o - - - 6 m m q Q.[.L. X X",
"].`.S.S.D.W.` n n 3 3 - - u u.i.i.8X7X7X7X7X7X7XwX7X7X7X7X7X7X7X7X7X8X-X-Xu.2 3 3 6 n m 9 T.D.'.OX!.",
"Q.R.`.N.A.S.8.7 8 6 4 - 3 f *X*X*X*X*X*X*X*X*X*X*X*X*X*X*X*X*X*X*X*X*X*X*Xu.+ O = = 8 6 9 L.).H.[.S.",
"S.U.`.`.T.A.(.(.b.(.(.Z.Z./ u.u.u.u.u.u.u.u.u.u.u.u.u.u.u.u.u.u.u.u.u.u.u.p.( M.c.c.M.M.v.!.).'.'.S."
};
