/* XPM */
static char *d58f4aa12ea3418f8013b2975086d928F4Xf424b70W1gi2H[] = {
/* columns rows colors chars-per-pixel */
"50 50 147 2 ",
"   c #7F581F",
".  c #976D33",
"X  c #977034",
"o  c #9A7337",
"O  c #9E763A",
"+  c #A3723A",
"@  c #A47B3F",
"#  c #A57C41",
"$  c #A97C45",
"%  c #B77F49",
"&  c #A98144",
"*  c #AE8548",
"=  c #BD834C",
"-  c #B2884B",
";  c #B78E50",
":  c #BB8E52",
">  c #BD9355",
",  c #C1844F",
"<  c #C28651",
"1  c #C48B55",
"2  c #C88F56",
"3  c #C78E59",
"4  c #C88F5B",
"5  c #C69057",
"6  c #C89156",
"7  c #C69359",
"8  c #C9945C",
"9  c #CA9B5E",
"0  c #C19662",
"q  c #CC9661",
"w  c #CD9C63",
"e  c #CF9D68",
"r  c #D19F66",
"t  c #D19E6A",
"y  c #CEA364",
"u  c #D1A465",
"i  c #D4AA66",
"p  c #D9AD66",
"a  c #D2A56B",
"s  c #D4A96D",
"d  c #D9AE6B",
"f  c #D7B06A",
"g  c #DAB36C",
"h  c #DEBA6E",
"j  c #D6A572",
"k  c #D5AA72",
"l  c #D6AA72",
"z  c #D6AA73",
"x  c #D6AB73",
"c  c #D5A971",
"v  c #D7AD71",
"b  c #D7AC72",
"n  c #D7A875",
"m  c #D7AB74",
"M  c #D7AB75",
"N  c #D7AA74",
"B  c #D6AA72",
"V  c #D8A873",
"C  c #D9AA77",
"Z  c #D8AC74",
"A  c #D8AC76",
"S  c #D8AC77",
"D  c #D9AC77",
"F  c #D8AB76",
"G  c #DAAB79",
"H  c #D9AC78",
"J  c #D9AD78",
"K  c #DAAD78",
"L  c #DAAC79",
"P  c #DAAD79",
"I  c #DAAC7A",
"U  c #DAAD7A",
"Y  c #DBAD7B",
"T  c #DAAE7A",
"R  c #DBAE7A",
"E  c #DBAE7B",
"W  c #DBAE7C",
"Q  c #DBAF7C",
"!  c #DCAF7C",
"~  c #DCAF7D",
"^  c #DBAE7C",
"/  c #D9B172",
"(  c #DAB073",
")  c #DCB573",
"_  c #DDB772",
"`  c #DAB174",
"'  c #DAB076",
"]  c #DEB774",
"[  c #DDB575",
"{  c #DEBA70",
"}  c #DFBC70",
"|  c #DEB874",
" . c #DFB973",
".. c #DEB379",
"X. c #DCB17B",
"o. c #DDB17B",
"O. c #DEB37B",
"+. c #DEB478",
"@. c #DDB17C",
"#. c #DCB07D",
"$. c #DDB17D",
"%. c #DFB57C",
"&. c #DFB67C",
"*. c #DEB27B",
"=. c #E0BC6E",
"-. c #E3BD73",
";. c #E0B977",
":. c #E2BC74",
">. c #E2BC74",
",. c #E0B77B",
"<. c #E0B77B",
"1. c #E0B878",
"2. c #E1B87B",
"3. c #E2BB7A",
"4. c #E2BA7B",
"5. c #E3BC7A",
"6. c #E3BD7A",
"7. c #E4BE7A",
"8. c #E2BC7A",
"9. c #E3C071",
"0. c #E3C172",
"q. c #E4C272",
"w. c #E4C373",
"e. c #E6C473",
"r. c #E4C075",
"t. c #E6C574",
"y. c #E7C676",
"u. c #E5C374",
"i. c #E8C776",
"p. c #E8C777",
"a. c #E8C775",
"s. c #E9CA76",
"d. c #EACA76",
"f. c #EACB76",
"g. c #EACA77",
"h. c #EACB77",
"j. c #EBCB77",
"k. c #EBCC77",
"l. c #EACA77",
"z. c #E4C079",
"x. c #E6C378",
"c. c #E7C478",
"v. c #E7C479",
"b. c #E6C279",
"n. c #E8C778",
"m. c #E9C778",
"M. c #E9C978",
/* pixels */
"g.t.0.x.g.h j.y s.t.f.i f.i x.w.h.n s 3.g i <.g.y g.r.0.i.g.h 5.h g i g.y y U i i 4.6.c g.g.g.w.f.f.",
"X.2 < a 7 p 7.8 w y $.y Q t.y z j e a n d < U y 1 X.3 < s 7 p n ,.z y 8 1 G y 0.8 #.s 7 n 7 , u 2 g.",
"n.y 8 :.Q s :.3 7 2 i.#.Q y y y a w 7 3.8 j #.#.A n.y 8 -.#.a U y z y A G 1 U 2 U x a j 7.s q -.U y ",
"~ ~ ~ q U y 9 7 j 9 r.U H U q G z ` q X.~ #.z #.u #.~ ~ 8 U y q e j #.y s j U C Q Q #.8 R X.X.5 z y ",
"j H Q s s c 1 9 x > x #.a j #.y y v.w y Q U #.+.I j x Q n s s w n R n y x.7 y ~ n x 6.n y A n s y y ",
"1 f x U d y q y i # y x #.7 $.y c H x q X.d j } k 2 g n A d y s 8 ,.i y C ~ a ~ i j ) c w i A Q a 9 ",
"y { s j x 8 w y / y 9 y n y X.y a s c k / _ 8 y 8 y d d j x 8 a y ) s y a n U C h 9 y w y h y S U q ",
"y s c s x e s e i f & 7 y y x y c j 7 c y y y y 7 y 7 s s x e a u h y s t 8 ~ y y y c 7 y a k c U x ",
"c U y y y y z 9 6.6.# 8 s y i a s j e U a y s 8 y c w y y y y S 9 ) y U t r G y y a e y n z i y x y ",
"Q a y y y 9 S e a ) 7 y #.n y s y s A ~ 9 s a e 7 Q # y y y 9 j n z y a a ~ ~ 7 z a a w #.s i y y y ",
"Q z y a | q n y : y > x q s s y s a z ~ a a 8 X.e ~ - y a ] q 8 ] r s u z ~ Q a a q z a | z 9 n h 5 ",
"Q #.y a 3.9 c 9 r y 9 X.9 h q n y U U ~ Q y w x.8 Q 3 y y 6.8 w i e s y ~ ~ ~ G y w | a #.z w s 3.9 ",
"a a 2 y X.z c a a n y y y i j a 7 j a ) 8 1 y ,.j a 9 7 y #.z a y a y w 8 u x.8 7 w X.a s y 7 u Q A ",
"A y 1 y c Q c 6.:.2 x w 1 U u u a G s s y 8 x R ~ C 2 X 8 c Q w a y z 3 j y s w y z #.Q s 9 7 y a ~ ",
"y y n X.z 4.8 y #.. 1 y w.y U A ~ ~ w n y a ~ y n.u w - < z 3.f y U a G ~ Q G y u ~ n i y y n x U Q ",
"U C -.i 7 q h y y 0 j 1 #.U 7 #.~ t U w 8 9 r.y #.U C y i 3 w s s g Q ~ 1 ~ 1 < 8 x.s R e n h y 2 1 ",
"y y +.a z.>.n 9 y y C Q ~ < y y a s ~ n y x.H #.#.y y < s x.z.#.9 z y U ~ ~ G y 0.z n #.s a Q w p.p.",
"U U 2 U g y s 7 U < y U U 1 1 a < 9 w a a w U 2 y X.U < = , y s t 8 A < 1 ~ y w y t 5 8 n t < Q g.y ",
"y y A 1 x , y y q 3 w g.y ~ G X.G h.5.j c y < i = w y U 1 < , n ~ a x.~ g.i.U G a 8 h w a 9 G 8 Q , ",
"< 9 C A ,.1 y z x w 1 C U ~ j 8 q ~ a 9 2 s y w.1 3 y U G a , U ~ q j z ~ u y 8 w 7 3.w w a a Q #.< ",
"3 8 y C x c U #.n #.U 5 i #.7 ~ z U q a q c < y x Q ` n ~ #.9 s ~ 9 ~ a ~ j s A = 1 y n X.s y Q #.y ",
"j +.w q x e x G 9 #.+.s x.~ a Q d a a z X.y 8 a w #.#.9 ~ $.s ) z 9 ~ U C 7 1.9 # < 9 #.Q +.9 G #.j ",
"5 g 8 Q a 2 Q a 5 x z.n A U a G | w w C x w < Z 2 U n 5 z 3.r G t w C X.y R d.= y = g U j d q Q s 5 ",
"8 < n #.e w C c a a Q s a ~ y a z w a y w s u 9 s c a n z j y C C y u R a ~ p % 8 q y e a 4 c U q y ",
"+ r c #.$.8 s s j s ~ ~ ~ s y 8 #.z a t n t i 7 Q c c c j Q z S a s 9 #.Q ~ 7 u 1 a w w A e n Q ~ u ",
"  s a x v w s a w s G ~ ~ y n s w ~ a w j t w 7 w a c q c Q U S y U y w ~ ~ y g q 7 e #.e n y s Q n ",
"& w x ` a e w w j R C 5.a n #.R w j w y 8 X.] 3 8 7 q a U Q ) a a #.z 8 w Q 7 7 q 2 s / 7 y s C ~ n ",
"y 2 H >.t z y y ~ ~ R ,.y a w w Q j a s 7 n h < z 9 e ~ $.#.X.s y j G C w a 8 g 1 w w d w 8 ~ x.~ z ",
"2 j a 9 q ~ t t j s ~ 8 A z 1 y ~ d e s z z y < Q x q a u j t t U a C ~ 0.A h +.w a a e x t a 9 q #.",
"= 7 j 2 G z a t s :.8 j 3 a 1 A G s a a y q w < Q a j y g q s w q t Q a +.y X.Q y y w y x a x 5 a u ",
"j j y j z t y e a 3 y U w 1 w e s q 9 s 8 2 y < 3 y u z q a Y e 9 7 8 z 3 U t.z c w a c n x a j G U ",
"~ 4 < a 7 p y a 8 y j U U 0.y j a t a s d < G j , y y < y t 3.s +.j y 3 1 y 1 y z.9 s y n 7 < y 3 n.",
"g.w 2 x.U s Q n U A y ~ ~ y y y s q 7 4.7 a <.3 G Q U j +.s n Q y C y C G g.t.< 3 x.y y >.a 7 x.A i ",
"~ ~ Q 4 #.y e t x.a U g.~ U 3 #.x x w Q ~ ~ j 1 y Q ~ n.9 ~ h w q a ~ y y h.G j U . s y #.Q +.1 X.y ",
"C U Q a s s 7 U q ~ y y y U ~ a y g.7 s ~ U U 9 #.y Q 4 A y y 8 ~ #.C y h.Q < Y z 7 g x n X.j a y y ",
", s G Q f a y y w.z y a #.< #.y x U k 9 C s C , w.y y r.U y y j 8 $.y y Q Q U 2 y o x.6.7 y +.~ y w ",
"y =.i c z 7 s 9 i u j X.U y +.y y y U k ] } 7 < y A y y a C a s 9 >.n y y J y a w.* t.c s h y U Q 3 ",
"y 2 n c x e y i s y 9 x.y y x y n G 7 n y a y 7 1 y y a a u :.y g d y s n a y j 4.O f y y y n x U A ",
"a y w y a y n 9 6.a n.z a y s i s j w x s y y w y a u ] y -.s C 7 | y U 8 #.U 7 b.: h y s x s y / y ",
"#.- y y y w n s ) a g y #.a y s y x x #.e y n < 9 R s h a i y n s z y x x #.4.9 x 1 | 9 #.s i y y y ",
"~ # y y ) q a [ 8 e w y w j a y a y U #.e s 9 q q 6.s 9 r u w 8 ] t a y s ~ 7.1 s 8 i y $.s y a g 7 ",
"~ 8 y a 7.8 g u 8 U U n 7 h w n s x H #.Q y q ] w 7.y 8 G $.y 9 d w n y R ~ R i c y x e ,.x 9 n 6.8 ",
"s 8 8 y ,.a A 9 u s U 6.y h t a 8 j c ] e 7 y | t ~ y w a ~ | s y a u y w ~ a t.a e Q s H y 9 y ~ n ",
"z 7 + q j ~ a 9 s y z 4.1 z s y e j a d 9 7 c U ~ a 7 a y A $.w a y j 8 t ~ y ,.z 7 a / n 9 2 y s ~ ",
"s 9 * < Z ,.y 9 a y Q ~ g s x z n ~ t j y u R a b.y 9 a y Q Q i y C s j ~ ~ C s a $ a 8 a w a c C ~ ",
"z j y y 8 u 8 y w a ~ G +.x w Q ~ j n t 9 w -.y <.3 y 8 y j j s a g U ~ 8 ~ 4 G 9 : ] j y s ) y 8 4 ",
"s y 1 s ;.) n s A 7 ~ a Q 7 w u j s ~ s w -.X.K X.j A C 7 +.g U 9 v u U j ~ 9 R A 1 x t a a X.y >.=.",
"x A = < 1 u a r 7 C z C Q < 2 a 1 8 t s u y ~ 7 y a 4 1 H | n s t w z 1 1 ~ G a 1 s U t.n a 1 C g.i ",
"y s n = , < ~ q y i.R 2 y G C +.G i.3.c n s < y < X.< y h ~ < n U a x.G i.y i.0., 1 s h s 8 j 8 #.1 ",
", y U z a , j R < #.~ y ~ Q n a 8 #.n 8 5 y y p., y U 3 ~ ~ 8 ~ ~ 8 G n ~ g.R #.3 y ~ 7.7 a j ~ R , "
};
