/* XPM */
static char *result[] = {
/* columns rows colors chars-per-pixel */
"50 50 220 2 ",
"   c #23221D",
".  c #3C2E15",
"X  c #312F28",
"o  c #14130E",
"O  c #46310C",
"+  c #543D16",
"@  c #4A3513",
"#  c #4E3F27",
"$  c #5E410C",
"%  c #5C451A",
"&  c #63440D",
"*  c #6C4B0D",
"=  c #714F0D",
"-  c #75510C",
";  c #7C560C",
":  c #6C4C13",
">  c #634715",
",  c #6E521C",
"<  c #785518",
"1  c #5B4626",
"2  c #584737",
"3  c #4F4223",
"4  c #664D28",
"5  c #6E5428",
"6  c #73562C",
"7  c #795B2C",
"8  c #765926",
"9  c #6B5638",
"0  c #7A5C3A",
"q  c #765B35",
"w  c #614B39",
"e  c #7C633B",
"r  c #5A5445",
"t  c #70534D",
"y  c #7B6443",
"u  c #7E6849",
"i  c #65625A",
"p  c #7A6F5C",
"a  c #787367",
"s  c #835A0D",
"d  c #8A5E0B",
"f  c #81570A",
"g  c #845C13",
"h  c #865E15",
"j  c #8D610C",
"k  c #94650B",
"l  c #9D6B0C",
"z  c #98670F",
"x  c #8B6319",
"c  c #956817",
"v  c #9F721E",
"b  c #A26E0A",
"n  c #A16D07",
"m  c #AB7407",
"M  c #A6710A",
"N  c #AC750B",
"B  c #A97308",
"V  c #B17706",
"C  c #B47906",
"Z  c #BA7D06",
"A  c #B07709",
"S  c #B47A09",
"D  c #BC7E09",
"F  c #A97619",
"G  c #B27B14",
"H  c #A06D10",
"J  c #885F25",
"K  c #836024",
"L  c #8E6822",
"P  c #82622D",
"I  c #8D6625",
"U  c #976C24",
"Y  c #836333",
"T  c #8A6C3C",
"R  c #876939",
"E  c #987338",
"W  c #927036",
"Q  c #A97B24",
"!  c #A3763C",
"~  c #815B5E",
"^  c #856B43",
"/  c #896B46",
"(  c #986D43",
")  c #8E764E",
"_  c #8F7546",
"`  c #937345",
"'  c #95794D",
"]  c #9C7C4D",
"[  c #91754A",
"{  c #886658",
"}  c #8C7250",
"|  c #85775E",
" . c #957955",
".. c #946659",
"X. c #A77649",
"o. c #A37D53",
"O. c #B67E4A",
"+. c #865D61",
"@. c #96686B",
"#. c #897D68",
"$. c #AB746C",
"%. c #A97478",
"&. c #B97D78",
"*. c #BF8005",
"=. c #BE800A",
"-. c #BB8B34",
";. c #C48405",
":. c #CA8702",
">. c #C1820A",
",. c #9E8256",
"<. c #AB8647",
"1. c #B68C49",
"2. c #A88853",
"3. c #A4845E",
"4. c #A58A5B",
"5. c #AB8B5A",
"6. c #AA8456",
"7. c #B68B57",
"8. c #BB945E",
"9. c #B8945C",
"0. c #B3944F",
"q. c #938265",
"w. c #928978",
"e. c #AA8B62",
"r. c #B38D61",
"t. c #A5916C",
"y. c #BB9464",
"u. c #BA956A",
"i. c #B99766",
"p. c #B79C75",
"a. c #AB9378",
"s. c #B8A27D",
"d. c #C1844F",
"f. c #C28651",
"g. c #C48B55",
"h. c #C68E59",
"j. c #C88F5B",
"k. c #C88F56",
"l. c #C69057",
"z. c #C69259",
"x. c #C9945C",
"c. c #C4995E",
"v. c #CA9B5E",
"b. c #CB9662",
"n. c #C49D62",
"m. c #CD9C63",
"M. c #C29C69",
"N. c #CF9D68",
"B. c #D19E6A",
"V. c #C79F72",
"C. c #CEA364",
"Z. c #CDA46C",
"A. c #C6A56B",
"S. c #D1A565",
"D. c #D3AA67",
"F. c #D8AC66",
"G. c #D2A56B",
"H. c #D4A96D",
"J. c #D8AF6C",
"K. c #D6B16B",
"L. c #DAB36B",
"P. c #DEBA6E",
"I. c #CCA372",
"U. c #C8A473",
"Y. c #D5A572",
"T. c #D6AA73",
"R. c #D8AB76",
"E. c #D6AA7A",
"W. c #DBAE7B",
"Q. c #DBB473",
"!. c #DFBA72",
"~. c #DDB37B",
"^. c #DCB878",
"/. c #E2B96F",
"(. c #E1BC74",
"). c #E0B77B",
"_. c #E3BC7A",
"`. c #E4BA77",
"'. c #DFC074",
"]. c #E4C273",
"[. c #E8C775",
"{. c #EACA76",
"}. c #E6C279",
"|. c #E8C778",
" X c #E9C978",
".X c #B87C85",
"XX c #BE8184",
"oX c #B7A588",
"OX c #ADA597",
"+X c #B3AFA6",
"@X c #C5858A",
"#X c #CA8A93",
"$X c #D4909B",
"%X c #C6B69B",
"&X c #D4BD98",
"*X c #DD95A2",
"=X c #E79CA9",
"-X c #D0BEA2",
";X c #F3A4B3",
":X c #F9A6B6",
">X c #F9A8B7",
",X c #FBA8B8",
"<X c #EBC281",
"1X c #F6CC87",
"2X c #FACF88",
"3X c #FCD089",
"4X c #D4C2A5",
"5X c #DBC8AA",
"6X c #CCC5B8",
"7X c #E2CEAE",
"8X c #F1DCBB",
"9X c #F6E1BF",
"0X c #CBCBC9",
"qX c #D8D8D6",
"wX c #E1DCD3",
"eX c #FEE7C5",
"rX c #F7E2C1",
"tX c #EAE9E8",
"yX c #FEFEFD",
"uX c #F6F6F6",
/* pixels */
"{.[.].}.{.P.{.C.{.}.{.n.5.P x j K ' Y.^.L.F.).{.C.{.[.].}.{.P._./.F.D.{.C.C.W.S.J.^._.T.{.{.{.].{.{.",
"~.g.d.H.z.F._.x.v.8.^ +.6 S :.:.:.j 0 Z.F.f.W.C.g.W.g.f.H.z.F.T.).E.S.x.g.R.S.].z.~.H.x.R.z.d.S.g.{.",
"|.C.b.(.W.H.(.g./ ~ *X,X;X&.c ;.:.:.- } x.Y.).W.R.|.C.x.5.R q ) 8.T.C.R.T.g.W.g.W.R.B.H._.H.v._.W.C.",
"W.W.W.b.W.S.c.^ @.;X,X,X,X,X.Xc :.:.C 1 E.W.R.W.G.W.W./ d Z Z k 4 r.~.S.J.Y.W.E.W.W.W.v.W.W.~.g.R.C.",
"G.R.W.H.H.H.0 +.;X,X,X,X,X,X;X$.C :.:.=  .W.W.^.W.H.M.c :.:.:.:.m 1 M.C.}.z.C.W.T.R.).H.G.R.Y.H.C.C.",
"h.L.T.W.J.o.t ;X,X,X,X,X,X,X,X=X< :.:.m 2 L.Y.P.T.g.2.C :.;.*.:.:.k y S.E.W.G.W.D.H.!.Y.v.D.Q.W.H.v.",
"S.!.T.Y.I.2 *X:X,X,X,X,X,X,X,X,Xt ;.:.:.+ K.x.S.x.C.<.S l < N :.:.Z P C.D.T.W.E.P.x.G.m.G.L.G.W.W.x.",
"C.H.Y.R. .t :X:X,X,X,X,X,X,X,X,X&.m :.:.M ' C.9.` Y < $ d >.:.:.:.:.L T.B.z.W.C.C.C.H.z.C.G.H.H.W.T.",
"Y.W.C.C.9 %.:X,X,X,X,X,X,X,X,X,X#Xm :.:.:.> G Z D z * @ O O : : * ; K 4.b.N.W.C.C.G.N.C.T.R.D.C.R.C.",
"W.G.C.S.2 @X:X,X,X,X,X,X,X,X,X,X@XA :.:.:.Z S :.:.:.:.;.C s - - s l T <.] u.E.z.T.G.G.m.~.H.S.C.C.C.",
"W.Y.C.H.2 #X,X,X,X,X,X,X,X,X,X,X..*.:.:.:.:.:.:.:.k k :.:.- :.b k ; ,.C.Y.E.W.Y.G.x.E.G.).T.v.T.P.l.",
"&XW.C.C.9 .X,X,X,X,X,X.X,X,X,X=Xc :.:.:.:.:.:.:.Z d :.:.:.= ;.$ :.:.k 8 V.u.~.V.Z.m.(.B.~.T.m.H.^.v.",
"S.m.g.S.) t ,X,X,X,X:X# &.*X#X( ;.:.:.:.:.:.:.:.S S z J s d = Z :.:.n ;.4 ,.H.[ z.v.~.H.T.C.z.S.W.R.",
"R.S.f.G.M.r =X,X,X,X:X#XH *.;.:.:.:.:.:.:.:.:.:.:.l OXa . ;.:.:.:.*.:.S @ y ' v.v.Q.W.W.H.v.h.C.G.~.",
"S.S.Y.~.Y.3.+.:X,X,X,X,X#XN :.:.:.:.:.:.:.:.:.:.:.7 tXi o - :.:.>.-.6 l & 3.R.G.G.W.T.F.S.C.Y.T.W.~.",
"R.R./.F.j.b.u @.:X,X,X,X@.Z :.:.:.:.:.:.:.:.:.:.:.e uX+X  O :.:.=.a.X ; : u.g.f.z._.H.W.N.T./.S.g.f.",
"C.C.).G.}._.H.^ @.;X,X,X4 :.:.:.:.:.:.:.:.:.:.:.:.R uXyX0Xp :.:.=.0Xw.% e E.R.C.].T.T.W.T.G.~.n.{.{.",
"W.W.g.W./.n.H.z.e.@.$X,X+ :.:.:.:.:.:.:.:.>.*.;.:.Q tXyXyXs.:.:.<.uXtX9 E ~.C.m.C.G.z.z.T.B.f.W.|.C.",
"v.S.W.f.T.d.C.C.j.h.o.u.@ :.:.:.:.:.:.:.:.*.=.n j F wXyXyX<.:.:.p.yX6X4 ^.{.W.E.G.x.P.b.H.x.R.x.W.f.",
"f.v.R.R.).f.S.R.E.N.h.E.# ;.:.:.:.:.:.:.:.:.:.:.m - wXyXtX=.:.:.6XuXt.` W.Z.C.z.v.x.`.B.x.H.G.W.~.f.",
"z.x.S.R.E.H.W.W.H.W.W.k.) s :.:.:.>.:.:.:.:.:.:.j ,.oX+Xt.M k K uX%XS c q } M.E.O.g.m.T.W.T.G.W.W.S.",
"Y.).v.b.R.B.T.R.v.W.).G._.# j k k s & & j j - 1 q.8XeXeXp   0XqXi 7Xs.j l s 3 7.T O.7.p.u.I.c.E.&XB.",
"k.L.x.W.H.g.W.G.l.I.U.r.u.e.4 S :.;.f.oXp r q.%X7XrXeXrXp X     a.eX5Xg Z l 3 W n.f.L.W.R.J.j.W.F.k.",
"x.f.E.~.N.v.W.H.Z.H.~.H.H.E.[ @ s - q.oX5XrXeXeXeXeXeXeXeXeX4X5XeX9X#.C *.: 2.O.] o.7.5.y.h.T.W.b.m.",
"! m.H.~.~.z.T.G.H.G.V.7.o. .8.x.} < p.eXeXeXeXeXeXeXeXeX8XrXeXeXrXt.z N 6 u.x.C.f.H.m.b.I.3.e.V.E.S.",
"g H.G.T.T.m.H.G.y.y.Y.&X&XC.T.G.N.E./ | 7XeXeXeXeXeX-Xr w.eXeX7XE l K ] R.&XC.L.b.z.B.W.B.H.G.H.I.V.",
"X.C.E.Q.B.C.m.m.Y.W.E.`.B.Y.W.~.N.Y.m.8.4 % e a.-XeX4X4X+XoX,.j T U.R.x.x.W.z.h.O.X.8.Q.z.m.Y.R.~.Y.",
"C.h.R._.B.T.N.G.~.W.W.).m.F.b.m.W.Y.y.8 :.:.:.;.H U ,.x C A =.*.v y e.Z.7.X.7 g ;.:.*.Q 1.8.W._.W.R.",
"k.Y.H.v.b.~.B.m.T.H.~.x.R.R.g.N.~.K.e m :.:.:.:.:.:.:.:.-.(.`./.J.<Xe.4 l N N z :.:.:.:.D G F I h.W.",
"d.h.Y.g.E.T.G.B.G.`.x.Y.g.G.g.R.E.] l :.:.:.:.:.;.:.:.:.-.{.3X3X3X2X3XA.c :.s :.:.:.:.:.:.;.U ! y.G.",
"R.Y.S.H.T.N.G.N.H.k.m.W.C.f.v.C.M.x :.:.:.:.:.N k ;.:.M x E E <.A.}.3X3X5.l k k I C :.M F Z x y.E.W.",
"W.k.f.G.z.F.S.G.x.v.E.R.~.].S.Y.^ C :.:.Z V B 5 J M j l Z :.:.:.l T 1X3X3XR c E !., l Y M.( Y n.h.|.",
"|.m.k._.W.H.W.T.W.R.C.~.W.S.S.<.k :.:.:.=.C B M N >.:.:.:.:.:.:.C 7 <X3X3XA.,.d.l.i._ c._.H.h.}.R.C.",
"W.W.W.x.W.S.m.B.}.G.W.{.&XY.g.0 D :.:.:.:.;.:.:.:.:.:.M :.:.:.:.:.n / 3X3X1X} E.R.E H.C.W.W.).f.~.C.",
"W.T. .t 2 8 P [ h.~.C.S.S.E.W.y M :.:.:.:.:.:.:.:.>.d * l :.:.:.:.=.8 1X3X3X' R.R.c.L.J.H.W.Y.H.C.C.",
"X.5.R.R.F.M.` 5 < q 8.S.W.g.W.c.9 - S :.:.:.;.k < : >.d =.f l :.j A K 1X3X3X4.g.v.E ].}.x.S.^.W.C.m.",
"8.].J.Y.T.x.H.c._ , < ) W.C.~.C.C.6.u 0 T T 0 ( ' N :.M j Z $ ; 5.i.^.2X2X3X4.Z.}.<.|.H.H.P.C.W.W.h.",
"C.g.T.T.R.N.C.F.H.7.5 ; 9 c.R.C.T.R.z.T.C.C.A.6 n :.:.:.:.n U K.3X3X3X3X3X3X) T.`.E L.Z.C.C.T.T.W.R.",
"H.n.C.C.G.S.R.v._.S.].9 z 4 8.S.H.Y.n.T.H.2.% C :.:.:.:.:.;.j ,.^.3X3X3X3X^.U 7 Q.1.L.C.H.T.H.C.Q.C.",
"W.1.v.S.n.v.T.H.!.G.L.C.9 k , 4.S.R.R.W.^ * :.:.:.:.:.:.:.:.:.:.z , ,.^.3X1.*.:.s q A.v.W.T.S.C.C.C.",
"~.X.C.G.^.x.G.Q.x.b.m.C.B.^ k j e A.T.} $ :.:.:.:.:.:.:.:.:.:.:.:.:.;.* 5 S :.:.:.:.; ^ ).H.m.G.L.x.",
"W.z.C.B._.x.L.S.b.~.W.H.l.K.] x N F ! . *.:.:.:.:.:.:.:.:.:.:.:.:.:.:.:.l + V :.:.:.m 0 ).R.C.T._.z.",
"H.x.z.S.).G.T.v.C.H.E._.C.K.B.M.X.v N O *.:.:.:.:.:.:.:.:.:.:.:.:.:.:.:.:.s ; :.:.;.K 9.R.H.x.C.W.T.",
"R.l.! x.R.~.H.v.T.C.R.).l.Y.H.C.b.Y.9./ $ =.:.:.:.:.:.:.:.:.:.:.:.:.:.:.;.* k :.C - ' Z.H.v.g.C.T.W.",
"H.v.<.f.T.).C.v.H.S.W.W.L.H.R.H.E.W.B.Y.] 1 j C :.:.:.:.:.:.:.:.:.:.;.n * d :.:.l h h K C.C.Z.Y.R.W.",
"T.H.v.S.x.G.x.C.v.G.W.W.).R.v.W.W.B.E.B.v.v.4.% f n m C *.:.:.:.C l 8 7 S :.:.:.:.:.l 0 N.H.P.Z.x.x.",
"G.G.g.H./.).R.Y.R.z.W.G.~.h.C.S.T.H.W.H.C.(. .l :.;.C C *.:.:.A d < c Y ` x k b l s T b.G.H.~.v.(./.",
"R.T.f.f.k.S.S.b.x.R.E.R.W.f.g.G.g.x.B.H.H.v.,.k :.:.:.:.:.:.:.:.=.*.; z X.W.I.i.O.G.W.|.Y.G.g.R.|.F.",
"S.G.Y.d.d.f.W.b.m.{.W.h.C.E.R.).E.[.`.T.T.G.f.R & D :.:.:.:.:.:.:.;.= _ ].C.|.].7.d.Y./.H.x.R.x.W.f.",
"1.C.W.R.B.f.T.W.f.~.W.C.W.~.R.G.j.~.T.x.g.H.C.|.X.0 P - f k j ; < 7 5.R.W.{.W.~.h.C.~.`.z.H.G.W.W.f."
};
