/* XPM */
static char *result[] = {
/* columns rows colors chars-per-pixel */
"50 50 69 1 ",
"  c #140A04",
". c #231207",
"X c #25160C",
"o c #2A1609",
"O c #26180E",
"+ c #2B190D",
"@ c #341C0C",
"# c #3B1E0B",
"$ c #2C1C11",
"% c #331E11",
"& c #3D200D",
"* c #342013",
"= c #3C2211",
"- c #362418",
"; c #44220C",
": c #4B260D",
"> c #4E280F",
", c #532A0E",
"< c #5A2D0F",
"1 c #442612",
"2 c #482610",
"3 c #452916",
"4 c #4D2A12",
"5 c #542C12",
"6 c #5B2E11",
"7 c #553016",
"8 c #5D3114",
"9 c #553119",
"0 c #5D3418",
"q c #633212",
"w c #6E3712",
"e c #663917",
"r c #6D3915",
"t c #633619",
"y c #663919",
"u c #6B3B1B",
"i c #703712",
"p c #733A14",
"a c #793E17",
"s c #733E1B",
"d c #7A3F18",
"f c #75411E",
"g c #7D421A",
"h c #7D4620",
"j c #7E4B21",
"k c #83451C",
"l c #87481E",
"z c #894A1F",
"x c #814721",
"c c #834A22",
"v c #8C4C22",
"b c #914F23",
"n c #8C5224",
"m c #945225",
"M c #995427",
"N c #945927",
"B c #9C5A26",
"V c #975428",
"C c #9C5629",
"Z c #975928",
"A c #9E5929",
"S c #A25D2A",
"D c #9F612A",
"F c #A5612B",
"G c #AA652D",
"H c #AD692E",
"J c #B16D2F",
"K c #B36F30",
"L c #B57130",
/* pixels */
"rfJzBFgZSmCCgpv0SGawigFSarAKGCmx;sFSlpzCCCzpkFk,wi",
"&CSJFAhAgippip8CvwrwizJGC4pSSCv:dCACkaCCSGJSgigm2w",
"qkMCAmg5iiwwiqtmpgpwiMLLS0qdzk5izSCSCMCCbMGJCMAb<;",
"qiiklww:qq58,55VbCCmbSLLAc;wq,;izlzzMCvgipzVAmlq.&",
"2wwwwww<;uCFSCn6SCCCCCmvMmo&55;waMMlipiabawaawq,lH",
"c,wwwww>hCSKJCCtkMMvkpwiaqoMKM:#:pgmiivCbpiiwq@wpz",
"kg<www>@mCFLJSCg,ppiwi<:;XokJmiw<&>wiilMaiw<,e4ewi",
"ZHf,;7rtbSSGSCBl<:,w<#6v4y8pFFmMmpr&qwgkw,#jDHH5ww",
"SHFv&ZggcZAmgggi<:etecGZ4hxvmSCCzp5ep6;8f01GamFy@w",
"kVCVuNHA8vmawww#<FLFFSAhxxuCCCbp<;kFKSylmVtAmCkq+>",
"ippalfSC6,wwww,,gBSCAMcuJZ,kCCgq#izGAzrmAm,abai6MA",
"wwwwq:kawo#,qw:&wwglgq6FLS5wpa<@ueppw8;papq#wi<qgz",
"wwii:;iiq:qq<,,X:wwiq;wCGAx<w<;mGZ;,ynu6iw<=@::rav",
":wi<##<<:gMzbBm@r06w#qwablgq;<6:0s<ZJLHyq6hSZvg4wm",
"o;;<pq@qzJJGFFswHHgua9<iiwww:qiiiqBJHFzg1bSHLLJF0q",
"kklbCqqbJGCCm,>pHZmmch&:www8;4,6:,lMgiwwuladzAGJFv",
"FGACA8wlMblr,qq43+58,6q<<,4sFFuex1baiwww,iwwwidkzz",
"LJkabsqwiq,5gMzq3&bFHSagkbhhFSbCb@Vviiww:,,84;;,,,",
"LSiiam#,1$uSJHm5Z5BLLGSSGGC4kzCmg1FSlai62rbFx6iq6v",
"Jlwwwb5<q5uGHA8wM<kGJGJLLLSqqpki;dKKCCmsvSKKA8laAJ",
"miiiwll<ai:VAy;imyqMSSGGKKSy;i<85kFFCVg:CKLKuvHGLG",
"iiiwgMn;vAa&&6&izM:pkdaakvb9+5fS0idkdp@1vSbdqbSSSv",
"iwwiig<<mJm8eF5ivCw,iwiwwipy+ZKShqww,+45paw:#ixvai",
":wiww;:gHKMyHLu,ppi#qiwiiwiqsSFCi,w,==mqi5exuqiii<",
"m;w<&wzHLStFLGh%qiiq.4wiwiw<gMbki##tcfC88CGJA&<q5n",
"p, ,wialCtVHFvh$.#:tt$o;;##.6iiwp<6Snqv6CJLJV%0jGS",
"q;q,<wiiw6MMgi8<pikCCxtawww<;wwiw1GLN5qyCSSCfnKLJA",
":ppwq,qww,ppr6,ipmSKGStmblkzm6qq1uKLC6q6kgawyGLHvq",
"kSAlpi<,:#,:;;biiCHLJScmKGSbCV%sA>zGLg;qwii:vAAg,q",
"JLGACbgqZAgv%qCaibGJHSbmSKbidmtSvqvGLHx5qii;ikw:aC",
"JLSMCAsmKKCCtrCaizSCSSv<vVpiwqxl8wkMGHJCy46864&ivC",
"GGmpkr<gSvkmv5apipvmvSc@waiw6,kw,qwpglmCxhHCx0@qpa",
"kbpw<+:wpwpMAv:qwipppaq,;<q2O<iq@#iiiwipqCbzbk;:8<",
"6w<81;,<wiigaq:#:::::5qiq,:+y,,:@s:qwiiq5giw6qjFAx",
"kfnHN,lr,qq>@:qqbs,qwiwwiw6yAlazuMp,,:::;q5ynHLHCm",
"zHKKHepFNfqq<iibK8wipgklmp6dAHSAxcMapkka,6pkkkkgpw",
"pmFHm6nKJSCg<abSKm,pAGHKJbaezSSCuHGMCGHb4,qwwwqqq2",
"wwlg;qkFSckv<kSGSS0qSHKHFAywiaddcLFAGLFx6be,:;,qgb",
":ww6&6wpiiiq,lSGVkVtvfhbCb5qiww:HLAmSJSsqlCCm466,q",
"meqeHgwwqq;o,zCzlidb%qq;6,%#,,#<mZgpCMl1<wgmucGFC5",
"JN9nKF#2qvvp2wgpiwidyCbr5mSxrip,paiwgr@*@;6,4bGLFV",
"gFCsGA9tVSSSx6iiwiqqnGV65MSCVCSqwiwi<tcACzpa5kmAmz",
"wkChmp8CSJKGSx6iq65mLFxfq5dVCSHb6qq:lAJJLGCCsqipi6",
"<gCsVvsvMSKLFC#;@Xikmgukwg6aVSLJx+%@pvAFGSCCC66<,q",
"<lv<bmb2avSSSx:wv=qwwwsawwg6aSHGc-4p:idvCCvmCy5qib",
"qp4;qw684ipag<xbCA9riwpzwidyikbk>aZA6,wwppiad:dbVH",
"5rxvgt2zx#qii,MmCG8u645mvdkt;<;;;aAGm2,wwiiw:8MGHJ",
"mJmaxb5isxq4#4MpmmhFCV6pkai5q,qktikCCus;<wi:qMKLLS",
"ASmllCtqxLGv93CrmhmHvbfqww<xapmG8wgkqySGf&@7CAHLHs",
"zCSLLGk;gSFACsCgvuvawix56;,VbbJJ:www;wigvMu$pmMFS:"
};
